{
    "asset" : {
        "generator" : "Khronos glTF Blender I/O v1.7.33",
        "version" : "2.0"
    },
    "scene" : 0,
    "scenes" : [
        {
            "name" : "Scene",
            "nodes" : [
                0,
                1,
                2,
                3
            ]
        }
    ],
    "nodes" : [
        {
            "extras" : {
                "sparkar_optimization" : {
                    "InvertedReducePercentage" : 0.0
                },
                "spark_blender_addon" : 1
            },
            "mesh" : 0,
            "name" : "Cone"
        },
        {
            "extras" : {
                "sparkar_optimization" : {}
            },
            "mesh" : 1,
            "name" : "Cylinder"
        },
        {
            "extras" : {
                "sparkar_optimization" : {}
            },
            "mesh" : 2,
            "name" : "Curve2"
        },
        {
            "extras" : {
                "sparkar_optimization" : {}
            },
            "mesh" : 3,
            "name" : "Curve1"
        }
    ],
    "materials" : [
        {
            "doubleSided" : true,
            "name" : "Material.001",
            "pbrMetallicRoughness" : {
                "baseColorFactor" : [
                    0.800000011920929,
                    0.800000011920929,
                    0.800000011920929,
                    1
                ],
                "metallicFactor" : 0,
                "roughnessFactor" : 0.5
            }
        },
        {
            "doubleSided" : true,
            "emissiveFactor" : [
                1,
                1,
                1
            ],
            "name" : "ring",
            "pbrMetallicRoughness" : {
                "metallicFactor" : 0
            }
        }
    ],
    "meshes" : [
        {
            "name" : "Cone",
            "primitives" : [
                {
                    "attributes" : {
                        "POSITION" : 0,
                        "NORMAL" : 1,
                        "TEXCOORD_0" : 2
                    },
                    "indices" : 3,
                    "material" : 0
                }
            ]
        },
        {
            "name" : "Cylinder",
            "primitives" : [
                {
                    "attributes" : {
                        "POSITION" : 4,
                        "NORMAL" : 5,
                        "TEXCOORD_0" : 6
                    },
                    "indices" : 7,
                    "material" : 1
                }
            ]
        },
        {
            "name" : "Curve2",
            "primitives" : [
                {
                    "attributes" : {
                        "POSITION" : 8,
                        "NORMAL" : 9,
                        "TEXCOORD_0" : 10
                    },
                    "indices" : 11,
                    "material" : 1
                }
            ]
        },
        {
            "name" : "Curve1",
            "primitives" : [
                {
                    "attributes" : {
                        "POSITION" : 12,
                        "NORMAL" : 13,
                        "TEXCOORD_0" : 14
                    },
                    "indices" : 15,
                    "material" : 1
                }
            ]
        }
    ],
    "accessors" : [
        {
            "bufferView" : 0,
            "componentType" : 5126,
            "count" : 645,
            "max" : [
                0.33198341727256775,
                0.33198338747024536,
                0.5675477981567383
            ],
            "min" : [
                -0.33198341727256775,
                -0.33198344707489014,
                0.009749341756105423
            ],
            "type" : "VEC3"
        },
        {
            "bufferView" : 1,
            "componentType" : 5126,
            "count" : 645,
            "type" : "VEC3"
        },
        {
            "bufferView" : 2,
            "componentType" : 5126,
            "count" : 645,
            "type" : "VEC2"
        },
        {
            "bufferView" : 3,
            "componentType" : 5123,
            "count" : 3072,
            "type" : "SCALAR"
        },
        {
            "bufferView" : 4,
            "componentType" : 5126,
            "count" : 130,
            "max" : [
                0.14800000190734863,
                0.14800000190734863,
                0.021000007167458534
            ],
            "min" : [
                -0.14800000190734863,
                -0.14800000190734863,
                0.0009999936446547508
            ],
            "type" : "VEC3"
        },
        {
            "bufferView" : 5,
            "componentType" : 5126,
            "count" : 130,
            "type" : "VEC3"
        },
        {
            "bufferView" : 6,
            "componentType" : 5126,
            "count" : 130,
            "type" : "VEC2"
        },
        {
            "bufferView" : 7,
            "componentType" : 5123,
            "count" : 372,
            "type" : "SCALAR"
        },
        {
            "bufferView" : 8,
            "componentType" : 5126,
            "count" : 748,
            "max" : [
                0.2987123131752014,
                0.2986398935317993,
                0.08350001275539398
            ],
            "min" : [
                -0.2987017333507538,
                -0.29264581203460693,
                0.07649998366832733
            ],
            "type" : "VEC3"
        },
        {
            "bufferView" : 9,
            "componentType" : 5126,
            "count" : 748,
            "type" : "VEC3"
        },
        {
            "bufferView" : 10,
            "componentType" : 5126,
            "count" : 748,
            "type" : "VEC2"
        },
        {
            "bufferView" : 11,
            "componentType" : 5123,
            "count" : 1152,
            "type" : "SCALAR"
        },
        {
            "bufferView" : 12,
            "componentType" : 5126,
            "count" : 754,
            "max" : [
                0.17534644901752472,
                0.17529550194740295,
                0.05350000783801079
            ],
            "min" : [
                -0.1753416210412979,
                -0.17529872059822083,
                0.04649999365210533
            ],
            "type" : "VEC3"
        },
        {
            "bufferView" : 13,
            "componentType" : 5126,
            "count" : 754,
            "type" : "VEC3"
        },
        {
            "bufferView" : 14,
            "componentType" : 5126,
            "count" : 754,
            "type" : "VEC2"
        },
        {
            "bufferView" : 15,
            "componentType" : 5123,
            "count" : 1152,
            "type" : "SCALAR"
        }
    ],
    "bufferViews" : [
        {
            "buffer" : 0,
            "byteLength" : 7740,
            "byteOffset" : 0
        },
        {
            "buffer" : 0,
            "byteLength" : 7740,
            "byteOffset" : 7740
        },
        {
            "buffer" : 0,
            "byteLength" : 5160,
            "byteOffset" : 15480
        },
        {
            "buffer" : 0,
            "byteLength" : 6144,
            "byteOffset" : 20640
        },
        {
            "buffer" : 0,
            "byteLength" : 1560,
            "byteOffset" : 26784
        },
        {
            "buffer" : 0,
            "byteLength" : 1560,
            "byteOffset" : 28344
        },
        {
            "buffer" : 0,
            "byteLength" : 1040,
            "byteOffset" : 29904
        },
        {
            "buffer" : 0,
            "byteLength" : 744,
            "byteOffset" : 30944
        },
        {
            "buffer" : 0,
            "byteLength" : 8976,
            "byteOffset" : 31688
        },
        {
            "buffer" : 0,
            "byteLength" : 8976,
            "byteOffset" : 40664
        },
        {
            "buffer" : 0,
            "byteLength" : 5984,
            "byteOffset" : 49640
        },
        {
            "buffer" : 0,
            "byteLength" : 2304,
            "byteOffset" : 55624
        },
        {
            "buffer" : 0,
            "byteLength" : 9048,
            "byteOffset" : 57928
        },
        {
            "buffer" : 0,
            "byteLength" : 9048,
            "byteOffset" : 66976
        },
        {
            "buffer" : 0,
            "byteLength" : 6032,
            "byteOffset" : 76024
        },
        {
            "buffer" : 0,
            "byteLength" : 2304,
            "byteOffset" : 82056
        }
    ],
    "buffers" : [
        {
            "byteLength" : 84360,
            "uri" : "data:application/octet-stream;base64,"
        }
    ]
}
